<?xml version="1.0" encoding="utf-8"?>
<!-- Generator: Adobe Illustrator 23.0.3, SVG Export Plug-In . SVG Version: 6.00 Build 0)  -->
<svg version="1.1" id="Icons" xmlns="http://www.w3.org/2000/svg" xmlns:xlink="http://www.w3.org/1999/xlink" x="0px" y="0px"
	 viewBox="0 0 22 21.1" style="enable-background:new 0 0 22 21.1;" xml:space="preserve">
<style type="text/css">
	.st0{fill:url(#SVGID_1_);}
</style>
<linearGradient id="SVGID_1_" gradientUnits="userSpaceOnUse" x1="10.9953" y1="22.3775" x2="10.9953" y2="1.0565" gradientTransform="matrix(1 0 0 -1 0 22.265)">
	<stop  offset="0" style="stop-color:#FFF650"/>
	<stop  offset="1" style="stop-color:#FFAB17"/>
</linearGradient>
<path class="st0" d="M12,19l3.5,1.8c1,0.5,2.3,0.1,2.9-0.9c0.2-0.4,0.3-0.9,0.2-1.3l-0.7-3.9c-0.1-0.7,0.1-1.4,0.6-1.9l2.8-2.8
	c0.8-0.8,0.9-2.2,0-3c-0.3-0.3-0.8-0.6-1.2-0.6l-3.9-0.6c-0.7-0.1-1.3-0.5-1.6-1.2l-1.8-3.5c-0.5-1.1-1.8-1.5-2.9-1
	c-0.4,0.2-0.8,0.5-1,1L7.3,4.7C7,5.4,6.4,5.8,5.7,5.9L1.8,6.5C0.7,6.6-0.1,7.7,0,8.9c0.1,0.5,0.3,0.9,0.6,1.2l2.8,2.8
	c0.5,0.5,0.7,1.2,0.6,1.9l-0.7,3.9c-0.2,1.2,0.6,2.3,1.7,2.5c0.5,0.1,0.9,0,1.4-0.2L10,19C10.6,18.7,11.4,18.7,12,19z"/>
</svg>
