<?xml version="1.0" encoding="utf-8"?>
<!-- Generator: Adobe Illustrator 23.0.3, SVG Export Plug-In . SVG Version: 6.00 Build 0)  -->
<svg version="1.1" id="레이어_1" xmlns="http://www.w3.org/2000/svg" xmlns:xlink="http://www.w3.org/1999/xlink" x="0px"
	 y="0px" viewBox="0 0 30 26" style="enable-background:new 0 0 30 26;" xml:space="preserve">
<style type="text/css">
	.st0{fill:#4E565D;}
</style>
<g id="Layer_2">
	<path class="st0" d="M15,17L15,17c0.6,0,1,0.4,1,1l0,0c0,0.6-0.4,1-1,1l0,0c-0.6,0-1-0.4-1-1l0,0C14,17.4,14.4,17,15,17z"/>
	<path class="st0" d="M25.3,22H4.7C2.1,22,0,19.9,0,17.3h0V4.7C0,2.1,2.1,0,4.7,0h20.6C27.9,0,30,2.1,30,4.7l0,0v12.6
		C30,19.9,27.9,22,25.3,22L25.3,22z M4.7,2C3.2,2,2,3.2,2,4.7l0,0v12.6C2,18.8,3.2,20,4.7,20h0h20.6c1.5,0,2.7-1.2,2.7-2.7v0V4.7
		C28,3.2,26.8,2,25.3,2l0,0H4.7z"/>
	<rect x="1" y="14" class="st0" width="28" height="2"/>
	<path class="st0" d="M19.8,26h-9.6l-1.5-6h12.6L19.8,26z M11.8,24h6.4l0.5-2h-7.4L11.8,24z"/>
	<path class="st0" d="M9,24h12c0.6,0,1,0.4,1,1l0,0c0,0.6-0.4,1-1,1H9c-0.6,0-1-0.4-1-1l0,0C8,24.4,8.4,24,9,24z"/>
</g>
</svg>
