<?xml version="1.0" encoding="utf-8"?>
<!-- Generator: Adobe Illustrator 23.0.3, SVG Export Plug-In . SVG Version: 6.00 Build 0)  -->
<svg version="1.1" id="레이어_1" xmlns="http://www.w3.org/2000/svg" xmlns:xlink="http://www.w3.org/1999/xlink" x="0px"
	 y="0px" viewBox="0 0 199.7 199.7" style="enable-background:new 0 0 199.7 199.7;" xml:space="preserve">
<style type="text/css">
	.st0{fill:none;stroke:#4E565D;stroke-width:16;stroke-linecap:round;stroke-linejoin:round;}
</style>
<path class="st0" d="M127.4,15.7c27.6,7.4,49.2,29,56.6,56.6"/>
<path class="st0" d="M119.1,46.6c16.6,4.4,29.6,17.4,34,34"/>
<path class="st0" d="M60.5,100.5c8.2,17,22,30.7,39,38.9c2.6,1.2,5.6,1,7.9-0.6l25-16.7c2.2-1.5,5.1-1.8,7.6-0.7l46.8,20.1
	c3.3,1.4,5.3,4.8,4.8,8.3c-3.1,24-23.5,41.9-47.6,41.9c-75.1,0-136-60.9-136-136C8,31.5,25.9,11.1,49.9,8.1c3.5-0.5,6.9,1.5,8.3,4.8
	l20.1,46.9c1.1,2.4,0.8,5.3-0.6,7.5L61,92.7C59.5,95,59.3,98,60.5,100.5z"/>
</svg>
