<?xml version="1.0" encoding="utf-8"?>
<!-- Generator: Adobe Illustrator 23.0.3, SVG Export Plug-In . SVG Version: 6.00 Build 0)  -->
<svg version="1.1" id="Layer_1" xmlns="http://www.w3.org/2000/svg" xmlns:xlink="http://www.w3.org/1999/xlink" x="0px" y="0px"
	 viewBox="0 0 46.1 61" style="enable-background:new 0 0 46.1 61;" xml:space="preserve">
<style type="text/css">
	.st0{fill:#4E565D;}
</style>
<path class="st0" d="M44.2,18.5l-2.3-1.5c-0.5-0.4-0.8-1-0.5-1.7l0.9-2.6c0.5-1.4,0.3-2.9-0.6-4.1c-0.9-1.2-2.2-1.9-3.7-1.8
	l-2.8,0.1c-0.7,0-1.2-0.4-1.4-1l-0.8-2.7c-0.4-1.4-1.5-2.5-2.9-3c-1.4-0.5-2.9-0.2-4.1,0.7l-2.2,1.7c-0.5,0.4-1.2,0.4-1.7,0L20,0.9
	c-1.2-0.9-2.7-1.2-4.1-0.7s-2.5,1.6-2.9,3l-0.8,2.7c-0.2,0.6-0.8,1-1.4,1L8.1,6.8C6.7,6.7,5.3,7.4,4.4,8.6c-0.9,1.2-1.1,2.7-0.6,4.1
	l1,2.6c0.2,0.6,0,1.3-0.5,1.7l-2.3,1.5C0.7,19.3,0,20.7,0,22.1c0,1.5,0.7,2.8,1.9,3.7l2.3,1.5c0.5,0.4,0.8,1,0.5,1.7l-1,2.6
	c-0.5,1.4-0.3,2.9,0.6,4.1c0.9,1.2,2.3,1.9,3.7,1.8l2.7-0.1v22.1c0,0.5,0.3,1,0.7,1.3c0.2,0.1,0.5,0.2,0.8,0.2
	c0.2,0,0.5-0.1,0.7-0.2l10.1-5.4l10.2,5.4c0.5,0.3,1,0.2,1.5,0c0.4-0.3,0.7-0.8,0.7-1.3V37.4l2.6,0.1c1.5,0.1,2.9-0.6,3.7-1.8
	c0.9-1.2,1.1-2.7,0.6-4.1L41.4,29c-0.2-0.6,0-1.3,0.5-1.7l2.3-1.5c1.2-0.8,1.9-2.2,1.9-3.7C46.1,20.7,45.4,19.3,44.2,18.5z M32.4,57
	l-8.7-4.6c-0.2-0.1-0.5-0.2-0.7-0.2c-0.2,0-0.5,0.1-0.7,0.2L13.8,57V42.5c0,0,0,0,0,0c0.1,0.2,0.3,0.3,0.4,0.4c0,0,0.1,0.1,0.1,0.1
	c0.1,0.1,0.2,0.2,0.3,0.3c0.1,0,0.1,0.1,0.2,0.1c0.1,0.1,0.2,0.2,0.4,0.2c0.1,0,0.1,0.1,0.2,0.1c0.2,0.1,0.4,0.2,0.6,0.2
	c0.2,0.1,0.4,0.1,0.6,0.2c0.1,0,0.1,0,0.2,0c0.2,0,0.3,0,0.5,0c0,0,0.1,0,0.1,0c0,0,0.1,0,0.1,0c0.2,0,0.4,0,0.6,0c0,0,0.1,0,0.1,0
	c0.2,0,0.4-0.1,0.6-0.2c0.1,0,0.1,0,0.2-0.1c0.2-0.1,0.3-0.1,0.5-0.2c0.1,0,0.1-0.1,0.2-0.1c0.2-0.1,0.4-0.2,0.5-0.4l2.2-1.7
	c0.3-0.2,0.6-0.3,0.9-0.3c0.3,0,0.6,0.1,0.9,0.3l2.2,1.7c1.2,0.9,2.7,1.2,4.1,0.7c0.2-0.1,0.4-0.2,0.6-0.3c0.1,0,0.1-0.1,0.2-0.1
	c0.1-0.1,0.3-0.2,0.4-0.3c0,0,0.1-0.1,0.2-0.1c0.2-0.1,0.3-0.3,0.4-0.4c0,0,0,0,0,0c0.2-0.2,0.3-0.3,0.4-0.5c0,0,0,0,0,0L32.4,57
	L32.4,57z M42.5,23.3l-2.3,1.5c-1.7,1.1-2.4,3.3-1.7,5.2l0.9,2.6c0.2,0.5,0.1,0.9-0.2,1.3c-0.3,0.4-0.7,0.6-1.2,0.6l-2.8-0.1
	c-1.4,0-2.7,0.5-3.5,1.5c0,0,0,0,0,0.1c-0.2,0.2-0.3,0.4-0.4,0.6c0,0-0.1,0.1-0.1,0.1c-0.1,0.3-0.3,0.5-0.3,0.8l-0.8,2.7
	c-0.1,0.5-0.5,0.8-0.9,1c-0.1,0-0.2,0.1-0.3,0.1c-0.3,0-0.7-0.1-1-0.3l-2.2-1.7c-0.3-0.3-0.7-0.4-1-0.6c-0.1,0-0.2-0.1-0.3-0.1
	c-1.2-0.4-2.6-0.3-3.7,0.4c-0.2,0.1-0.3,0.2-0.5,0.3L18.2,41c-0.4,0.3-0.8,0.4-1.3,0.2s-0.8-0.5-0.9-1l-0.4-1.3l-0.4-1.3
	c-0.1-0.3-0.2-0.5-0.3-0.8c0-0.1-0.1-0.1-0.1-0.2c-0.1-0.2-0.2-0.4-0.4-0.5c0,0-0.1-0.1-0.1-0.1c-0.2-0.2-0.3-0.3-0.5-0.5
	c0,0-0.1,0-0.1-0.1c-0.8-0.6-1.7-1-2.8-1c0,0-0.1,0-0.2,0L8,34.5c-0.5,0-0.9-0.2-1.2-0.6c-0.3-0.4-0.3-0.9-0.2-1.3l1-2.6
	c0.7-1.9,0-4-1.7-5.2l-2.3-1.5C3.2,23,3,22.6,3,22.1s0.2-0.9,0.6-1.2l2.3-1.5c1.7-1.1,2.4-3.3,1.7-5.2l-1-2.6
	c-0.2-0.5-0.1-0.9,0.2-1.3C7.1,10,7.5,9.7,8,9.8l2.8,0.1c2,0.1,3.8-1.2,4.4-3.2L15.9,4c0.1-0.5,0.5-0.8,0.9-1
	c0.5-0.1,0.9-0.1,1.3,0.2L20.3,5c1.6,1.3,3.8,1.3,5.4,0l2.2-1.7c0.4-0.3,0.8-0.4,1.3-0.2s0.8,0.5,0.9,1l0.8,2.7
	c0.6,2,2.3,3.3,4.4,3.2l2.8-0.1c0.5,0,0.9,0.2,1.2,0.6c0.3,0.4,0.3,0.9,0.2,1.3l-0.9,2.6c-0.7,1.9,0,4,1.7,5.2l2.3,1.5
	c0.4,0.3,0.6,0.7,0.6,1.2C43.1,22.6,42.9,23,42.5,23.3z"/>
<path class="st0" d="M32.4,16.2h-5.3l-1.6-5.1l0,0c-0.3-1-1.3-1.7-2.4-1.7l0,0c-1.1,0-2,0.7-2.4,1.7l-1.6,5.1h-5.3
	c-1.1,0-2,0.7-2.4,1.7s0,2.2,0.9,2.8l4.3,3.1l-1.6,5c-0.3,1,0,2.2,0.9,2.8c0.9,0.6,2.1,0.6,3,0l4.3-3.1l4.3,3.1
	c0.4,0.3,1,0.5,1.5,0.5s1-0.2,1.5-0.5c0.9-0.6,1.3-1.8,0.9-2.8l-1.6-5l4.3-3.1c0.9-0.6,1.3-1.8,0.9-2.8
	C34.5,16.9,33.5,16.2,32.4,16.2z M27,22.1c-0.5,0.4-0.8,1.1-0.5,1.7l1.5,4.7l-4-2.9c-0.5-0.4-1.2-0.4-1.8,0l-4,2.9l1.5-4.7
	c0.2-0.6,0-1.3-0.5-1.7l-4-2.9h4.9c0.7,0,1.2-0.4,1.4-1l1.5-4.7l1.5,4.7c0.2,0.6,0.8,1,1.4,1H31L27,22.1z"/>
</svg>
