<?xml version="1.0" encoding="utf-8"?>
<!-- Generator: Adobe Illustrator 23.0.3, SVG Export Plug-In . SVG Version: 6.00 Build 0)  -->
<svg version="1.1" id="_x3C_레이어_x3E_" xmlns="http://www.w3.org/2000/svg" xmlns:xlink="http://www.w3.org/1999/xlink"
	 x="0px" y="0px" viewBox="0 0 78 72" style="enable-background:new 0 0 78 72;" xml:space="preserve">
<style type="text/css">
	.st0{fill:none;stroke:#4E565D;stroke-width:6;stroke-linecap:round;stroke-linejoin:round;stroke-miterlimit:10;}
</style>
<g>
	<path class="st0" d="M65.3,28.4c0.3,0,0.6-0.1,1-0.1c4.8,0,8.8,3.3,8.8,7.3v6.6c0,4-3.9,7.3-8.8,7.3c-0.3,0-1-0.1-1-0.1"/>
	<path class="st0" d="M12.7,28.4c-0.3,0-0.6-0.1-1-0.1c-4.8,0-8.8,3.3-8.8,7.3v6.6c0,4,3.9,7.3,8.8,7.3c0.3,0,0.7-0.1,1-0.1l1.5-0.2
		"/>
	<path class="st0" d="M51.6,64.1c0,2.7-2.2,4.9-4.9,4.9H33.2c-2.7,0-4.9-2.2-4.9-4.9l0,0c0-2.7,2.2-4.9,4.9-4.9h13.6
		C49.5,59.3,51.6,61.4,51.6,64.1L51.6,64.1z"/>
	<path class="st0" d="M29.4,61c-9.4-1.3-16.7-9.5-16.7-19.3V22.5C12.7,11.7,21.4,3,32.2,3h13.6c10.7,0,19.5,8.7,19.5,19.5v27.1"/>
</g>
</svg>
